<svg width="24" height="25" viewBox="0 0 24 25" fill="none" xmlns="http://www.w3.org/2000/svg">
<g id="lucide:land-plot">
<g id="Group">
<path id="Vector" d="M12 8.5L18 5.5L12 2.5V12.5" stroke="#E7C873" stroke-width="2" stroke-linecap="round" stroke-linejoin="round"/>
<path id="Vector_2" d="M8.00011 12.4902L2.50011 15.6302C2.34621 15.7175 2.21821 15.8439 2.12915 15.9968C2.04009 16.1496 1.99316 16.3233 1.99316 16.5002C1.99316 16.6771 2.04009 16.8509 2.12915 17.0037C2.21821 17.1565 2.34621 17.283 2.50011 17.3702L11.0001 22.2302C11.3042 22.4058 11.649 22.4982 12.0001 22.4982C12.3512 22.4982 12.6961 22.4058 13.0001 22.2302L21.5001 17.3702C21.654 17.283 21.782 17.1565 21.8711 17.0037C21.9601 16.8509 22.0071 16.6771 22.0071 16.5002C22.0071 16.3233 21.9601 16.1496 21.8711 15.9968C21.782 15.8439 21.654 15.7175 21.5001 15.6302L16.0001 12.5002M6.49011 13.3502L17.5101 19.6502M17.5101 13.3502L6.50011 19.6502" stroke="#E7C873" stroke-width="2" stroke-linecap="round" stroke-linejoin="round"/>
</g>
</g>
</svg>
