<svg width="24" height="25" viewBox="0 0 24 25" fill="none" xmlns="http://www.w3.org/2000/svg">
<g id="ph:users-four-light">
<path id="Vector" d="M2.6625 12.1994C2.78185 12.2889 2.93186 12.3273 3.07955 12.3062C3.22723 12.2851 3.36049 12.2062 3.45 12.0869C3.92156 11.4581 4.53303 10.9478 5.23598 10.5963C5.93894 10.2449 6.71407 10.0619 7.5 10.0619C8.28593 10.0619 9.06106 10.2449 9.76402 10.5963C10.467 10.9478 11.0784 11.4581 11.55 12.0869C11.6396 12.2061 11.773 12.2848 11.9207 12.3057C12.0683 12.3266 12.2183 12.288 12.3375 12.1984C12.3801 12.1671 12.4177 12.1295 12.4491 12.0869C12.9206 11.4581 13.5321 10.9478 14.235 10.5963C14.938 10.2449 15.7131 10.0619 16.4991 10.0619C17.285 10.0619 18.0601 10.2449 18.7631 10.5963C19.466 10.9478 20.0775 11.4581 20.5491 12.0869C20.6387 12.2062 20.7721 12.2851 20.9198 12.3061C21.0676 12.3271 21.2177 12.2885 21.337 12.1989C21.4564 12.1093 21.5352 11.9759 21.5562 11.8281C21.5772 11.6804 21.5387 11.5303 21.4491 11.4109C20.7409 10.4625 19.7746 9.73796 18.6656 9.32406C19.2567 8.87123 19.691 8.24458 19.9076 7.53218C20.1241 6.81977 20.112 6.05742 19.8729 5.35225C19.6339 4.64708 19.1798 4.03455 18.5747 3.60072C17.9695 3.1669 17.2437 2.93359 16.4991 2.93359C15.7545 2.93359 15.0286 3.1669 14.4234 3.60072C13.8183 4.03455 13.3643 4.64708 13.1252 5.35225C12.8861 6.05742 12.874 6.81977 13.0906 7.53218C13.3071 8.24458 13.7414 8.87123 14.3325 9.32406C13.4453 9.65456 12.6469 10.1863 12 10.8775C11.3528 10.1862 10.5541 9.65443 9.66656 9.32406C10.2576 8.87123 10.692 8.24458 10.9085 7.53218C11.1251 6.81977 11.1129 6.05742 10.8739 5.35225C10.6348 4.64708 10.1808 4.03455 9.57563 3.60072C8.97047 3.1669 8.24459 2.93359 7.5 2.93359C6.75541 2.93359 6.02953 3.1669 5.42437 3.60072C4.81922 4.03455 4.3652 4.64708 4.12613 5.35225C3.88705 6.05742 3.87494 6.81977 4.09149 7.53218C4.30804 8.24458 4.74237 8.87123 5.33344 9.32406C4.22425 9.73803 3.25788 10.4629 2.55 11.4119C2.50568 11.471 2.47343 11.5382 2.4551 11.6098C2.43677 11.6813 2.43271 11.7558 2.44315 11.8289C2.4536 11.9021 2.47835 11.9724 2.51598 12.036C2.55362 12.0995 2.60341 12.1551 2.6625 12.1994ZM16.5 4.06188C16.9821 4.06188 17.4534 4.20483 17.8542 4.47267C18.255 4.7405 18.5675 5.12119 18.752 5.56659C18.9364 6.01198 18.9847 6.50208 18.8907 6.97491C18.7966 7.44774 18.5645 7.88206 18.2236 8.22295C17.8827 8.56384 17.4484 8.79599 16.9755 8.89004C16.5027 8.98409 16.0126 8.93582 15.5672 8.75133C15.1218 8.56684 14.7411 8.25442 14.4733 7.85358C14.2055 7.45273 14.0625 6.98147 14.0625 6.49938C14.0625 5.85291 14.3193 5.23292 14.7764 4.7758C15.2335 4.31868 15.8535 4.06188 16.5 4.06188ZM7.5 4.06188C7.98209 4.06188 8.45336 4.20483 8.8542 4.47267C9.25505 4.7405 9.56747 5.12119 9.75196 5.56659C9.93644 6.01198 9.98472 6.50208 9.89066 6.97491C9.79661 7.44774 9.56446 7.88206 9.22357 8.22295C8.88268 8.56384 8.44836 8.79599 7.97553 8.89004C7.5027 8.98409 7.0126 8.93582 6.56721 8.75133C6.12181 8.56684 5.74113 8.25442 5.47329 7.85358C5.20546 7.45273 5.0625 6.98147 5.0625 6.49938C5.0625 5.85291 5.31931 5.23292 5.77643 4.7758C6.23355 4.31868 6.85353 4.06188 7.5 4.06188ZM18.6666 19.0741C19.2576 18.6212 19.692 17.9946 19.9085 17.2822C20.1251 16.5698 20.1129 15.8074 19.8739 15.1022C19.6348 14.3971 19.1808 13.7845 18.5756 13.3507C17.9705 12.9169 17.2446 12.6836 16.5 12.6836C15.7554 12.6836 15.0295 12.9169 14.4244 13.3507C13.8192 13.7845 13.3652 14.3971 13.1261 15.1022C12.8871 15.8074 12.8749 16.5698 13.0915 17.2822C13.308 17.9946 13.7424 18.6212 14.3334 19.0741C13.4459 19.4044 12.6472 19.9362 12 20.6275C11.3528 19.9362 10.5541 19.4044 9.66656 19.0741C10.2576 18.6212 10.692 17.9946 10.9085 17.2822C11.1251 16.5698 11.1129 15.8074 10.8739 15.1022C10.6348 14.3971 10.1808 13.7845 9.57563 13.3507C8.97047 12.9169 8.24459 12.6836 7.5 12.6836C6.75541 12.6836 6.02953 12.9169 5.42437 13.3507C4.81922 13.7845 4.3652 14.3971 4.12613 15.1022C3.88705 15.8074 3.87494 16.5698 4.09149 17.2822C4.30804 17.9946 4.74237 18.6212 5.33344 19.0741C4.22425 19.488 3.25788 20.2129 2.55 21.1619C2.50568 21.221 2.47343 21.2882 2.4551 21.3598C2.43677 21.4313 2.43271 21.5058 2.44315 21.5789C2.4536 21.6521 2.47835 21.7224 2.51598 21.786C2.55362 21.8495 2.60341 21.9051 2.6625 21.9494C2.72159 21.9937 2.78884 22.0259 2.8604 22.0443C2.93196 22.0626 3.00642 22.0667 3.07955 22.0562C3.15268 22.0458 3.22303 22.021 3.28659 21.9834C3.35015 21.9458 3.40568 21.896 3.45 21.8369C3.92156 21.2081 4.53303 20.6978 5.23598 20.3463C5.93894 19.9949 6.71407 19.8119 7.5 19.8119C8.28593 19.8119 9.06106 19.9949 9.76402 20.3463C10.467 20.6978 11.0784 21.2081 11.55 21.8369C11.6396 21.9561 11.773 22.0348 11.9207 22.0557C12.0683 22.0766 12.2183 22.038 12.3375 21.9484C12.3801 21.9171 12.4177 21.8795 12.4491 21.8369C12.9206 21.2081 13.5321 20.6978 14.235 20.3463C14.938 19.9949 15.7131 19.8119 16.4991 19.8119C17.285 19.8119 18.0601 19.9949 18.7631 20.3463C19.466 20.6978 20.0775 21.2081 20.5491 21.8369C20.6387 21.9562 20.7721 22.0351 20.9198 22.0561C21.0676 22.0771 21.2177 22.0385 21.337 21.9489C21.4564 21.8593 21.5352 21.7259 21.5562 21.5781C21.5772 21.4304 21.5387 21.2803 21.4491 21.1609C20.7412 20.2126 19.7752 19.4881 18.6666 19.0741ZM7.5 13.8119C7.98209 13.8119 8.45336 13.9548 8.8542 14.2227C9.25505 14.4905 9.56747 14.8712 9.75196 15.3166C9.93644 15.762 9.98472 16.2521 9.89066 16.7249C9.79661 17.1977 9.56446 17.6321 9.22357 17.9729C8.88268 18.3138 8.44836 18.546 7.97553 18.64C7.5027 18.7341 7.0126 18.6858 6.56721 18.5013C6.12181 18.3168 5.74113 18.0044 5.47329 17.6036C5.20546 17.2027 5.0625 16.7315 5.0625 16.2494C5.0625 15.6029 5.31931 14.9829 5.77643 14.5258C6.23355 14.0687 6.85353 13.8119 7.5 13.8119ZM16.5 13.8119C16.9821 13.8119 17.4534 13.9548 17.8542 14.2227C18.255 14.4905 18.5675 14.8712 18.752 15.3166C18.9364 15.762 18.9847 16.2521 18.8907 16.7249C18.7966 17.1977 18.5645 17.6321 18.2236 17.9729C17.8827 18.3138 17.4484 18.546 16.9755 18.64C16.5027 18.7341 16.0126 18.6858 15.5672 18.5013C15.1218 18.3168 14.7411 18.0044 14.4733 17.6036C14.2055 17.2027 14.0625 16.7315 14.0625 16.2494C14.0625 15.6029 14.3193 14.9829 14.7764 14.5258C15.2335 14.0687 15.8535 13.8119 16.5 13.8119Z" fill="#E7C873"/>
</g>
</svg>
