<svg width="24" height="25" viewBox="0 0 24 25" fill="none" xmlns="http://www.w3.org/2000/svg">
<g id="lineicons:hand-shake">
<path id="Vector" d="M11.825 6.95592L11.816 6.94992L11.023 6.41692C10.4787 6.05081 9.82933 5.87321 9.17444 5.91132C8.51955 5.94943 7.8952 6.20114 7.397 6.62792L5.45 8.29692C5.31401 8.41321 5.14093 8.47705 4.962 8.47692H2.75C2.55109 8.47692 2.36032 8.55594 2.21967 8.69659C2.07902 8.83724 2 9.02801 2 9.22692V15.2569C2 15.6709 2.336 16.0069 2.75 16.0069H4.838C4.9445 16.0069 5.04979 16.0295 5.14686 16.0733C5.24394 16.1171 5.33057 16.181 5.401 16.2609L7.74 18.9209C8.10412 19.3348 8.60749 19.6005 9.15459 19.6678C9.70169 19.7351 10.2545 19.5992 10.708 19.2859L11.392 18.8129L12.126 19.0629C12.5796 19.2167 13.0704 19.2218 13.5271 19.0774C13.9837 18.9329 14.3824 18.6466 14.665 18.2599L15.135 17.6179L15.461 17.6619C15.9125 17.7227 16.3718 17.6451 16.7782 17.4392C17.1846 17.2333 17.519 16.9089 17.737 16.5089L17.786 16.4189H21.25C21.4489 16.4189 21.6397 16.3399 21.7803 16.1992C21.921 16.0586 22 15.8678 22 15.6689V9.22792C22 9.02901 21.921 8.83824 21.7803 8.69759C21.6397 8.55694 21.4489 8.47792 21.25 8.47792H19.039C18.8591 8.47797 18.6852 8.41338 18.549 8.29592L16.86 6.83692C16.1555 6.22815 15.2497 5.90325 14.3189 5.92543C13.388 5.94761 12.4987 6.31528 11.824 6.95692M10.184 7.66192L10.746 8.03992L8.786 10.0109C8.57477 10.2234 8.40808 10.4758 8.29573 10.7535C8.18337 11.0313 8.12761 11.3286 8.13171 11.6282C8.1358 11.9277 8.19968 12.2234 8.31959 12.498C8.4395 12.7725 8.61303 13.0203 8.83 13.2269L8.898 13.2909C9.708 14.0619 10.96 14.1219 11.839 13.4309L13.918 11.7989L16.575 14.3539C16.6937 14.4679 16.7716 14.6178 16.7967 14.7804C16.8219 14.943 16.7928 15.1094 16.714 15.2539L16.689 15.2979L16.675 15.3239L16.42 15.7909C16.3473 15.9241 16.236 16.0321 16.1006 16.1006C15.9653 16.1692 15.8124 16.1951 15.662 16.1749L14.893 16.0719C14.7594 16.0539 14.6234 16.0723 14.4993 16.1251C14.3752 16.1779 14.2677 16.2632 14.188 16.3719L13.454 17.3739C13.3598 17.5028 13.227 17.5983 13.0749 17.6465C12.9227 17.6947 12.7592 17.6931 12.608 17.6419L11.518 17.2719C11.4071 17.2342 11.289 17.2229 11.173 17.2391C11.057 17.2552 10.9464 17.2983 10.85 17.3649L9.856 18.0519C9.70473 18.1565 9.5203 18.2018 9.33778 18.1794C9.15526 18.1569 8.98736 18.0681 8.866 17.9299L6.527 15.2699C6.31569 15.03 6.05567 14.8378 5.76425 14.7062C5.47284 14.5747 5.15674 14.5067 4.837 14.5069H3.5V9.97692H4.961C5.49792 9.97704 6.01718 9.78515 6.425 9.43592L8.373 7.76692C8.62204 7.55346 8.93419 7.42751 9.26163 7.40836C9.58908 7.38922 9.91378 7.47793 10.186 7.66092M18.306 14.9199C18.3096 14.6127 18.2503 14.3079 18.1316 14.0245C18.0129 13.7411 17.8374 13.4849 17.616 13.2719L15.095 10.8479C15.2081 10.7037 15.2645 10.523 15.2535 10.34C15.2425 10.157 15.1648 9.98435 15.0352 9.85471C14.9056 9.72508 14.7329 9.64741 14.5499 9.6364C14.3669 9.62538 14.1862 9.68177 14.042 9.79492L13.536 10.1919L13.476 10.2389L10.914 12.2519C10.7722 12.3634 10.5949 12.42 10.4147 12.4113C10.2346 12.4027 10.0635 12.3294 9.933 12.2049L9.865 12.1399C9.79266 12.0711 9.73479 11.9885 9.69479 11.897C9.65479 11.8055 9.63346 11.7069 9.63207 11.6071C9.63067 11.5072 9.64923 11.4081 9.68665 11.3155C9.72407 11.2229 9.77961 11.1388 9.85 11.0679L12.815 8.08792C13.2165 7.68424 13.7562 7.4478 14.3252 7.42627C14.8941 7.40474 15.4501 7.59973 15.881 7.97192L17.568 9.42992C17.9771 9.78312 18.4996 9.97729 19.04 9.97692H20.5V14.9199H18.306Z" fill="#E7C873"/>
</g>
</svg>
