<svg width="24" height="25" viewBox="0 0 24 25" fill="none" xmlns="http://www.w3.org/2000/svg">
<g id="dashicons:awards">
<path id="Vector" d="M5.35197 6.69297L5.99997 9.45297L5.35197 12.201L7.76397 13.689L9.23997 16.101L12 15.453L14.76 16.101L16.236 13.689L18.648 12.201L18 9.45297L18.648 6.69297L16.248 5.20497L14.76 2.79297L12 3.45297L9.25197 2.80497L7.75197 5.20497L5.35197 6.69297ZM12.012 14.301C10.7389 14.301 9.51803 13.7953 8.61786 12.8951C7.71768 11.9949 7.21197 10.774 7.21197 9.50097C7.21197 8.22793 7.71768 7.00703 8.61786 6.10686C9.51803 5.20668 10.7389 4.70097 12.012 4.70097C14.652 4.70097 16.8 6.84897 16.8 9.48897C16.8 12.153 14.652 14.301 12.012 14.301ZM11.988 13.101C9.99597 13.101 8.39997 11.493 8.39997 9.50097C8.39997 7.52097 9.99597 5.90097 11.988 5.90097C13.98 5.90097 15.6 7.52097 15.6 9.50097C15.6 11.493 13.98 13.101 11.988 13.101ZM16.596 14.421L15.06 17.109L12.564 16.545L15.6 23.541L17.28 20.901H20.28L16.596 14.421ZM7.35597 14.505L8.85597 17.205L11.412 16.593L8.39997 23.541L6.71997 20.901H3.71997L7.35597 14.505Z" fill="#E7C873"/>
</g>
</svg>
