<?xml version="1.0" encoding="UTF-8"?>
<svg id="Layer_2" data-name="Layer 2" xmlns="http://www.w3.org/2000/svg" xmlns:xlink="http://www.w3.org/1999/xlink" viewBox="0 0 139.89 74.27">
  <defs>
    <style>
      .cls-1 {
        fill: #231f20;
      }

      .cls-2 {
        fill: url(#radial-gradient);
      }

      .cls-3 {
        fill: url(#radial-gradient-3);
      }

      .cls-4 {
        fill: url(#radial-gradient-2);
      }

      .cls-5 {
        fill: #292865;
      }
    </style>
    <radialGradient id="radial-gradient" cx="51.96" cy=".02" fx="51.96" fy=".02" r="49.83" gradientUnits="userSpaceOnUse">
      <stop offset="0" stop-color="#f7d688"/>
      <stop offset="1" stop-color="#a2722a"/>
    </radialGradient>
    <radialGradient id="radial-gradient-2" cx="51.96" cy=".02" fx="51.96" fy=".02" r="49.83" xlink:href="#radial-gradient"/>
    <radialGradient id="radial-gradient-3" cx="51.96" cy=".02" fx="51.96" fy=".02" r="49.83" xlink:href="#radial-gradient"/>
  </defs>
  <g id="Layer_1-2" data-name="Layer 1">
    <g>
      <g>
        <path class="cls-5" d="M6.9,56.07c-1.29,0-2.48-.1-3.53-.28-1.05-.19-2.06-.45-3.02-.77l-.27-.09v-2.63l.61.37c.92.55,1.91.93,2.93,1.13,1.05.21,2.16.31,3.31.31.81,0,1.58-.05,2.27-.15.67-.09,1.26-.24,1.74-.45.45-.19.81-.44,1.05-.73.23-.28.34-.61.34-1.02,0-.32-.09-.58-.26-.82-.2-.26-.47-.5-.82-.7-.37-.22-.81-.41-1.31-.58-.52-.17-1.07-.34-1.65-.49-.59-.15-1.19-.3-1.82-.44-.63-.15-1.25-.31-1.85-.48-.6-.17-1.18-.37-1.72-.59-.56-.23-1.05-.49-1.47-.8-.44-.32-.79-.69-1.04-1.11-.27-.44-.41-.95-.41-1.52s.11-1.05.32-1.48c.21-.43.5-.8.86-1.12.35-.3.77-.56,1.24-.76.45-.2.95-.36,1.46-.47.51-.11,1.04-.2,1.59-.25.54-.05,1.09-.08,1.61-.08.58,0,1.13.03,1.65.08.52.05,1.02.12,1.5.2.47.08.95.18,1.41.29.45.11.91.22,1.38.34l.3.08v2.5l-.58-.28c-.26-.13-.58-.27-.94-.42-.35-.15-.74-.28-1.19-.39-.45-.12-.96-.22-1.53-.29-.56-.08-1.19-.12-1.88-.12-.84,0-1.59.05-2.24.14-.63.09-1.17.24-1.6.43-.4.18-.71.41-.91.67-.19.25-.28.54-.28.89,0,.27.08.51.25.71.2.24.47.45.82.64.37.2.82.39,1.32.55.52.17,1.08.33,1.66.48.59.15,1.2.31,1.83.46.64.16,1.26.33,1.85.51.61.18,1.19.39,1.72.62.56.24,1.05.52,1.47.83.43.33.78.71,1.04,1.14.27.45.4.96.4,1.54,0,.61-.12,1.15-.35,1.62-.23.46-.55.85-.94,1.18-.38.32-.83.59-1.34.8-.49.2-1.02.37-1.58.49-.55.12-1.13.2-1.71.25-.58.05-1.16.07-1.72.07Z"/>
        <path class="cls-5" d="M23.04,56.07c-.98,0-1.87-.09-2.65-.27-.8-.18-1.49-.45-2.05-.82-.58-.37-1.03-.84-1.35-1.4-.32-.56-.48-1.21-.48-1.94s.19-1.39.56-1.95c.36-.55.88-1.03,1.54-1.43.64-.39,1.41-.72,2.31-.99.88-.26,1.87-.49,2.94-.67,1.07-.18,2.24-.33,3.49-.45,1.12-.11,2.31-.2,3.55-.27v-.74c0-.39-.07-.73-.21-1.03-.14-.3-.35-.56-.61-.78-.27-.23-.6-.43-.97-.59-.39-.16-.81-.3-1.27-.4-.46-.1-.95-.18-1.46-.22-.52-.04-1.04-.07-1.56-.07-.7,0-1.34.03-1.91.1-.57.07-1.11.16-1.6.28-.49.12-.98.26-1.43.42-.46.16-.93.33-1.4.52l-.55.21v-2.46l.3-.08c.99-.26,2.07-.5,3.19-.69,1.14-.2,2.36-.3,3.63-.3,1.09,0,2.11.09,3.06.28.96.19,1.82.5,2.53.92.74.43,1.33.99,1.75,1.68.43.69.65,1.53.65,2.51v10.33h-2.13v-1.37c-.37.17-.77.34-1.2.49-.66.24-1.37.45-2.1.62-.73.17-1.5.31-2.27.4-.77.09-1.54.14-2.29.14ZM30.89,47.87c-2.12.13-3.97.3-5.49.52-1.61.23-2.95.52-3.97.85-.98.32-1.7.69-2.15,1.1-.4.38-.6.79-.6,1.25,0,.39.09.73.29,1.02.2.3.5.57.88.78.41.22.92.4,1.51.51.61.12,1.31.18,2.08.18.45,0,.93-.03,1.41-.08.49-.05.98-.13,1.46-.22.49-.09.97-.21,1.44-.33.46-.13.91-.27,1.33-.42.41-.15.79-.31,1.12-.48.25-.13.48-.26.67-.39v-4.28Z"/>
        <path class="cls-5" d="M35.62,55.98v-15.45h2.14v2.44c.29-.26.59-.5.9-.73.57-.42,1.19-.79,1.83-1.1.64-.31,1.32-.55,2.02-.72.71-.17,1.45-.26,2.2-.26.26,0,.49,0,.69.02.21.01.4.03.57.04.17.02.34.04.49.06.15.02.31.05.47.08l.33.06v2.2l-.53-.16c-.2-.06-.47-.13-.82-.2-.34-.07-.79-.1-1.33-.1-.75,0-1.47.09-2.13.28-.67.19-1.29.44-1.86.76-.57.32-1.11.69-1.6,1.12-.45.39-.87.82-1.24,1.25v10.42h-2.14Z"/>
        <polygon class="cls-5" points="56.14 55.78 48.43 40.33 50.83 40.33 57.42 53.55 64.02 40.33 66.41 40.33 58.63 55.78 56.14 55.78"/>
        <path class="cls-5" d="M72.98,56.07c-.98,0-1.87-.09-2.65-.27-.8-.18-1.49-.45-2.05-.82-.58-.37-1.03-.84-1.35-1.4-.32-.56-.48-1.21-.48-1.94s.19-1.39.56-1.95c.36-.55.88-1.03,1.54-1.43.64-.39,1.41-.72,2.31-.99.88-.26,1.87-.49,2.94-.67,1.07-.18,2.24-.33,3.49-.45,1.12-.11,2.31-.2,3.55-.27v-.74c0-.39-.07-.73-.21-1.03-.14-.3-.35-.56-.61-.78-.27-.23-.6-.43-.97-.59-.39-.16-.81-.3-1.27-.4-.46-.1-.95-.18-1.46-.22-.52-.04-1.04-.07-1.56-.07-.7,0-1.34.03-1.91.1-.57.07-1.11.16-1.6.28-.49.12-.98.26-1.43.42-.46.16-.93.33-1.4.52l-.55.21v-2.46l.3-.08c.99-.26,2.07-.5,3.19-.69,1.14-.2,2.36-.3,3.63-.3,1.09,0,2.11.09,3.06.28.96.19,1.82.5,2.53.92.74.43,1.33.99,1.75,1.68.43.69.65,1.53.65,2.51v10.33h-2.13v-1.37c-.37.17-.77.34-1.2.49-.66.24-1.37.45-2.1.62-.73.17-1.5.31-2.27.4-.77.09-1.54.14-2.29.14ZM80.83,47.87c-2.12.13-3.97.3-5.49.52-1.61.23-2.95.52-3.97.85-.98.32-1.7.69-2.15,1.1-.4.38-.6.79-.6,1.25,0,.39.09.73.29,1.02.2.3.5.57.88.78.41.22.92.4,1.51.51.61.12,1.31.18,2.08.18.45,0,.93-.03,1.41-.08.49-.05.98-.13,1.46-.22.49-.09.97-.21,1.44-.33.46-.13.91-.27,1.33-.42.41-.15.79-.31,1.12-.48.25-.13.48-.26.67-.39v-4.28Z"/>
        <path class="cls-5" d="M95.19,56.07c-1.41,0-2.73-.16-3.94-.48-1.22-.32-2.3-.82-3.2-1.47-.91-.66-1.63-1.51-2.15-2.51-.52-1.01-.78-2.2-.78-3.54,0-.9.12-1.73.36-2.47.24-.74.58-1.43,1.02-2.02.44-.6.97-1.12,1.59-1.57.61-.44,1.3-.8,2.04-1.09.74-.28,1.54-.5,2.38-.64.84-.14,1.73-.21,2.65-.21.69,0,1.34.03,1.93.1.6.07,1.18.17,1.72.3.54.13,1.08.28,1.6.46.51.18,1.03.37,1.55.59l.25.1v2.63l-.62-.39c-.39-.25-.81-.48-1.26-.7-.44-.22-.92-.41-1.43-.57-.51-.16-1.06-.3-1.65-.39-.58-.1-1.22-.14-1.89-.14-1.38,0-2.59.15-3.61.43-1,.28-1.84.69-2.5,1.21-.65.51-1.14,1.14-1.46,1.87-.33.74-.49,1.59-.49,2.52,0,.87.16,1.68.48,2.41.32.72.81,1.35,1.45,1.88.66.53,1.49.96,2.49,1.26,1.01.31,2.21.46,3.58.46.54,0,1.08-.02,1.62-.06.53-.04,1.04-.1,1.52-.16.47-.07.91-.14,1.3-.22.26-.05.49-.11.69-.16v-3.73h-5.95v-2.06h8.1v7.13l-.27.1c-.53.19-1.08.35-1.62.5-.55.14-1.12.27-1.7.36-.58.1-1.19.17-1.81.22-.62.05-1.29.08-1.97.08Z"/>
        <path class="cls-5" d="M119.35,55.78v-10.07c0-.75-.1-1.37-.29-1.84-.19-.45-.46-.81-.8-1.07-.35-.27-.79-.46-1.3-.57-.55-.11-1.17-.17-1.86-.17-.79,0-1.58.1-2.35.29-.77.2-1.51.45-2.2.75-.69.3-1.33.64-1.91,1-.51.32-.96.64-1.32.93v10.75h-2.14v-15.45h2.14v2.25c.33-.2.68-.4,1.04-.61.62-.35,1.28-.68,1.99-.97.71-.3,1.48-.54,2.28-.73.82-.19,1.69-.29,2.58-.29,1.03,0,1.94.13,2.71.38.79.25,1.45.62,1.98,1.1.53.48.94,1.06,1.2,1.74.26.67.39,1.42.39,2.23v10.36h-2.14Z"/>
        <path class="cls-5" d="M129.73,56.07c-.98,0-1.87-.09-2.65-.27-.8-.18-1.49-.45-2.05-.82-.58-.37-1.03-.84-1.35-1.4-.32-.56-.48-1.21-.48-1.94s.19-1.39.56-1.95c.36-.55.88-1.03,1.54-1.43.64-.39,1.41-.72,2.31-.99.88-.26,1.87-.49,2.94-.67,1.07-.18,2.24-.33,3.49-.45,1.12-.11,2.31-.2,3.55-.27v-.74c0-.39-.07-.73-.21-1.03-.14-.3-.35-.56-.61-.78-.27-.23-.6-.43-.97-.59-.39-.16-.81-.3-1.27-.4-.46-.1-.95-.18-1.46-.22-.52-.04-1.04-.07-1.56-.07-.7,0-1.34.03-1.91.1-.57.07-1.11.16-1.6.28-.49.12-.98.26-1.43.42-.46.16-.93.33-1.4.52l-.55.21v-2.46l.3-.08c.99-.26,2.07-.5,3.19-.69,1.14-.2,2.36-.3,3.63-.3,1.09,0,2.11.09,3.06.28.96.19,1.82.5,2.53.92.74.43,1.33.99,1.75,1.68.43.69.65,1.53.65,2.51v10.33h-2.13v-1.37c-.37.17-.77.34-1.2.49-.66.24-1.37.45-2.1.62-.73.17-1.5.31-2.27.4-.77.09-1.54.14-2.29.14ZM137.58,47.87c-2.12.13-3.97.3-5.49.52-1.61.23-2.95.52-3.97.85-.98.32-1.7.69-2.15,1.1-.4.38-.6.79-.6,1.25,0,.39.09.73.29,1.02.2.3.5.57.88.78.41.22.92.4,1.51.51.61.12,1.31.18,2.08.18.45,0,.93-.03,1.41-.08.49-.05.98-.13,1.46-.22.49-.09.97-.21,1.44-.33.46-.13.91-.27,1.33-.42.41-.15.79-.31,1.12-.48.25-.13.48-.26.67-.39v-4.28Z"/>
      </g>
      <g>
        <g>
          <path class="cls-1" d="M30.63,64.33c1.55,0,2.21.91,2.21,2.4v1.18c0,1.56-.73,2.38-2.29,2.38h-.97v3.88h-1.1v-9.85h2.15ZM30.54,69.31c.82,0,1.21-.38,1.21-1.32v-1.31c0-.9-.32-1.35-1.13-1.35h-1.05v3.98h.97Z"/>
          <path class="cls-1" d="M42.12,64.33c1.55,0,2.19.79,2.19,2.25v.8c0,1.08-.38,1.76-1.22,2.03.9.27,1.24,1,1.24,2.05v1.53c0,.44.01.84.2,1.18h-1.11c-.13-.28-.18-.53-.18-1.2v-1.55c0-1.11-.52-1.46-1.43-1.46h-.77v4.21h-1.1v-9.85h2.19ZM41.84,68.97c.87,0,1.39-.28,1.39-1.35v-.94c0-.89-.32-1.35-1.14-1.35h-1.07v3.64h.82Z"/>
          <path class="cls-1" d="M51.57,66.7c0-1.5.75-2.48,2.25-2.48s2.26.97,2.26,2.48v5.09c0,1.49-.75,2.48-2.26,2.48s-2.25-.98-2.25-2.48v-5.09ZM52.65,71.85c0,.9.38,1.42,1.17,1.42s1.17-.52,1.17-1.42v-5.2c0-.89-.37-1.42-1.17-1.42s-1.17.53-1.17,1.42v5.2Z"/>
          <path class="cls-1" d="M63.03,73.17c.18.01.38.01.55.01.72-.04,1.15-.38,1.15-1.38v-7.48h1.08v7.41c0,1.84-.91,2.42-2.1,2.45-.25,0-.45.01-.69-.01v-1Z"/>
          <path class="cls-1" d="M76.59,68.69v.98h-2.4v3.5h2.95v1h-4.05v-9.85h4.05v1h-2.95v3.36h2.4Z"/>
          <path class="cls-1" d="M88.69,66.7v.89h-1.04v-.94c0-.89-.35-1.42-1.15-1.42s-1.15.53-1.15,1.42v5.2c0,.89.37,1.42,1.15,1.42s1.15-.53,1.15-1.42v-1.28h1.04v1.22c0,1.49-.7,2.48-2.22,2.48s-2.21-.98-2.21-2.48v-5.09c0-1.49.7-2.48,2.21-2.48s2.22.98,2.22,2.48Z"/>
          <path class="cls-1" d="M97.3,74.17v-8.85h-1.81v-1h4.71v1h-1.81v8.85h-1.08Z"/>
          <path class="cls-1" d="M111.39,66.69v.27h-1.04v-.32c0-.89-.34-1.41-1.13-1.41s-1.13.52-1.13,1.39c0,2.21,3.31,2.42,3.31,5.19,0,1.49-.72,2.46-2.22,2.46s-2.21-.97-2.21-2.46v-.56h1.03v.62c0,.89.37,1.41,1.15,1.41s1.15-.52,1.15-1.41c0-2.19-3.29-2.4-3.29-5.18,0-1.52.7-2.46,2.18-2.46s2.19.97,2.19,2.46Z"/>
        </g>
        <g>
          <rect class="cls-1" x="0" y="68.18" width="5.68" height="2.14"/>
          <rect class="cls-1" x="8.12" y="68.18" width="12.99" height="2.14"/>
        </g>
        <g>
          <rect class="cls-1" x="134.2" y="68.18" width="5.68" height="2.14"/>
          <rect class="cls-1" x="118.77" y="68.18" width="12.99" height="2.14"/>
        </g>
      </g>
      <g>
        <path class="cls-2" d="M93.23,8.73c-1.02-.08-3.58-.3-7.3.62-.47-3.59-1.53-6.38-2.83-9.35-5.16,1.69-9.79,4.51-13.24,7.67-3.45-3.16-8.08-5.97-13.24-7.67-1.31,2.97-2.36,5.76-2.83,9.35-3.72-.93-6.28-.7-7.3-.62-1.1,5.41-.26,11.56,3.27,16.06,4.99,6.37,12.91,6.85,17,7.41-2.6-2.36-6.28-6.49-6.44-6.66h0c-2.39-2.92-4.38-6.8-4.58-12.04-.68-.24-1.43-.46-2.15-.65.08,8.04,4.22,13.48,7.24,16.38-4.08-1.01-7.21-2.9-9.34-5.62-3.74-4.77-3.41-10.84-3.16-12.97,1.18,0,3.85.34,6.37,1.06,2.76.78,5.86,2.35,7.95,3.75.28-.62.6-1.27.95-1.82-2.35-1.53-4.88-2.76-7.73-3.67.28-2.38.93-4.86,1.95-7.38,1.78.71,5.75,2.51,9.49,5.62h0c.61.44,1.5,1.27,2.46,2.33v.02l.09.08s0,0,0,0c0,0,0,0,0,0l.09-.08v-.02c.96-1.06,1.85-1.89,2.46-2.33h0c3.74-3.11,7.71-4.91,9.49-5.62,1.02,2.52,1.68,4.99,1.95,7.38-2.85.91-5.38,2.14-7.73,3.67.35.55.68,1.2.95,1.82,2.09-1.4,5.19-2.96,7.95-3.75,2.52-.72,5.19-1.06,6.37-1.06.26,2.13.58,8.21-3.16,12.97-2.13,2.72-5.27,4.6-9.34,5.62,3.02-2.9,7.16-8.34,7.24-16.38-.72.19-1.48.41-2.15.65-.2,5.24-2.19,9.12-4.58,12.04h0c-.16.17-3.84,4.3-6.44,6.66,4.09-.56,12.01-1.04,17-7.41,3.53-4.5,4.37-10.64,3.27-16.06Z"/>
        <g>
          <path class="cls-4" d="M69.84,11.4c-2.33,1.74-5.55,4.28-7.68,8.24.98,5.23,4.28,9.73,5.2,10.83.53-.48,1.06-.99,1.52-1.48-.95-1.15-1.76-2.36-2.44-3.6-.06-.1-.11-.2-.16-.31,0,0,0,0,0,0-.29-.56-.61-1.23-.9-1.97,0,0,0,0,0,0-.15-.38-.28-.76-.41-1.14-.21-.64-.38-1.29-.53-1.95.66-.99,2.83-4.09,5.4-6.08,0,0,0,0,0,0,0,0,0,0,0,0,2.57,1.99,4.74,5.09,5.4,6.08-.14.66-.32,1.31-.53,1.95-.12.38-.26.77-.41,1.14,0,0,0,0,0,0-.29.74-.61,1.41-.9,1.97,0,0,0,0,0,0-.05.1-.11.2-.16.31-.68,1.24-1.49,2.45-2.44,3.6.45.49.99,1,1.52,1.48.93-1.1,4.22-5.6,5.2-10.83-2.13-3.96-5.35-6.5-7.68-8.24Z"/>
          <ellipse class="cls-3" cx="69.84" cy="20.26" rx="1.7" ry="1.59"/>
        </g>
      </g>
    </g>
  </g>
</svg>